<?xml version="1.0" encoding="utf-8"?>
<!-- Generator: Adobe Illustrator 25.4.1, SVG Export Plug-In . SVG Version: 6.00 Build 0)  -->
<svg version="1.1" id="Layer_1" xmlns="http://www.w3.org/2000/svg" xmlns:xlink="http://www.w3.org/1999/xlink" x="0px" y="0px"
	 viewBox="0 0 283.46 198.43" style="enable-background:new 0 0 283.46 198.43;" xml:space="preserve">
<style type="text/css">
	.st0{fill:#FFFFFF;}
</style>
<path class="st0" d="M141.73,10.08c-54.14,0-98.02,43.89-98.02,98.02c0,9.44,1.34,18.57,3.83,27.22h77.85h2.16
	c0.75,0,1.36-0.61,1.36-1.36c0-0.56-0.34-1.04-0.82-1.25l0,0l0.01,0c-14.34-5.49-24.53-19.37-24.53-35.64
	c0-21.07,17.08-38.15,38.15-38.15c21.07,0,38.15,17.08,38.15,38.15c0,16.27-10.19,30.15-24.53,35.64l0.02,0l0,0
	c-0.48,0.21-0.82,0.69-0.82,1.25c0,0.75,0.61,1.36,1.36,1.36h2.16h77.85c2.49-8.64,3.83-17.77,3.83-27.22
	C239.75,53.97,195.87,10.08,141.73,10.08"/>
<path class="st0" d="M57.85,151.73h10.01v19.33c0,1.92-0.3,3.73-0.9,5.43c-0.6,1.7-1.53,3.19-2.81,4.47
	c-1.28,1.28-2.62,2.17-4.02,2.69c-1.95,0.72-4.29,1.08-7.02,1.08c-1.58,0-3.3-0.11-5.17-0.33c-1.87-0.22-3.43-0.66-4.68-1.32
	c-1.25-0.66-2.4-1.59-3.44-2.8c-1.04-1.21-1.75-2.46-2.14-3.74c-0.62-2.06-0.93-3.89-0.93-5.49v-19.33h10.01v19.8
	c0,1.77,0.49,3.15,1.47,4.15c0.98,1,2.34,1.49,4.08,1.49c1.73,0,3.08-0.49,4.06-1.47c0.98-0.98,1.47-2.37,1.47-4.17V151.73z"/>
<path class="st0" d="M73.6,151.73h9.36l12.22,17.95v-17.95h9.45v32.45h-9.45l-12.15-17.82v17.82H73.6V151.73z"/>
<path class="st0" d="M139.44,151.73h9.52l3.43,18.17l5.02-18.17h9.49l5.03,18.14l3.43-18.14h9.48l-7.15,32.45h-9.83l-5.69-20.43
	l-5.67,20.43h-9.83L139.44,151.73z"/>
<path class="st0" d="M188.83,151.73h27.37v6.93h-17.32v5.16h15.54v6.62h-15.54v6.4h17.31v7.35h-27.36V151.73z"/>
<polyline class="st0" points="281.04,159.74 270.81,159.74 270.81,184.18 260.78,184.18 260.78,159.74 250.56,159.74 250.56,151.73 
	281.04,151.73 "/>
<path class="st0" d="M219.93,151.73h27.37v6.93h-17.32v5.16h15.54v6.62h-15.54v6.4h17.31v7.35h-27.36V151.73z"/>
<path class="st0" d="M30.57,168.82c-0.86-1.43-2.24-2.63-4.14-3.6c-1.9-0.97-5.04-1.92-9.42-2.87c-1.77-0.37-2.89-0.77-3.36-1.2
	c-0.49-0.41-0.73-0.88-0.73-1.39c0-0.71,0.3-1.31,0.89-1.8c0.59-0.49,1.47-0.74,2.63-0.74c1.42,0,2.53,0.33,3.33,1
	c0.7,0.57,1.18,1.45,1.46,2.62h9.57c-0.42-3.36-1.71-5.8-3.88-7.34c-2.18-1.54-5.34-2.31-9.49-2.31c-3.38,0-6.04,0.42-7.98,1.27
	c-1.94,0.85-3.39,2.01-4.36,3.5c-0.97,1.48-1.45,3.06-1.45,4.73c0,2.54,0.94,4.63,2.83,6.26c1.87,1.64,5.01,2.95,9.41,3.94
	c2.69,0.59,4.4,1.22,5.14,1.88c0.74,0.66,1.11,1.42,1.11,2.26c0,0.89-0.39,1.66-1.16,2.34c-0.77,0.67-1.88,1.01-3.31,1.01
	c-1.92,0-3.39-0.66-4.43-1.97c-0.55-0.71-0.94-1.7-1.17-2.97H2.82l-0.4,0.02c0.28,3.28,1.48,5.98,3.61,8.1
	c2.12,2.12,5.95,3.19,11.47,3.19c3.14,0,5.75-0.45,7.81-1.36c2.07-0.91,3.67-2.24,4.83-4c1.15-1.76,1.73-3.67,1.73-5.76
	C31.87,171.85,31.44,170.25,30.57,168.82z"/>
<path class="st0" d="M136.9,168.82c-0.86-1.43-2.24-2.63-4.14-3.6c-1.9-0.97-5.04-1.92-9.42-2.87c-1.77-0.37-2.89-0.77-3.36-1.2
	c-0.49-0.41-0.73-0.88-0.73-1.39c0-0.71,0.3-1.31,0.89-1.8c0.59-0.49,1.47-0.74,2.63-0.74c1.42,0,2.53,0.33,3.33,1
	c0.7,0.57,1.18,1.45,1.46,2.62h9.57c-0.42-3.36-1.71-5.8-3.88-7.34c-2.18-1.54-5.34-2.31-9.49-2.31c-3.38,0-6.04,0.42-7.98,1.27
	c-1.94,0.85-3.39,2.01-4.36,3.5c-0.97,1.48-1.45,3.06-1.45,4.73c0,2.54,0.94,4.63,2.83,6.26c1.87,1.64,5.01,2.95,9.41,3.94
	c2.69,0.59,4.4,1.22,5.14,1.88c0.74,0.66,1.11,1.42,1.11,2.26c0,0.89-0.39,1.66-1.16,2.34c-0.77,0.67-1.88,1.01-3.31,1.01
	c-1.92,0-3.39-0.66-4.43-1.97c-0.55-0.71-0.94-1.7-1.17-2.97h-9.23l-0.4,0.02c0.28,3.28,1.48,5.98,3.61,8.1
	c2.12,2.12,5.95,3.19,11.47,3.19c3.14,0,5.75-0.45,7.81-1.36c2.07-0.91,3.67-2.24,4.83-4c1.15-1.76,1.73-3.67,1.73-5.76
	C138.19,171.85,137.76,170.25,136.9,168.82z"/>
</svg>
